# xmcd CD database file
#
# Track frame offsets:
#	150
#	21750
#	39037
#	62045
#	81880
#	99175
#	123720
#	146485
#	166502
#	198572
#
# Disc length: 2879 seconds
#
# Revision: 0
# Processed by: cddbd v1.5.1PL0 Copyright (c) Steve Scherf et al.
# Submitted via: CDex 1.51
#
DISCID=770b3d0a
DTITLE=Grand Prix - Long Way Home
DYEAR=1900
DGENRE=Hard Rock
TTITLE0=Judgemment Night
TTITLE1=Brother Big Wild
TTITLE2=Risinnng Sun
TTITLE3=My Sweetest Heart
TTITLE4=To Be Free
TTITLE5=Somebody's Love
TTITLE6=Crazy Action
TTITLE7=Rosie Again
TTITLE8=Long Way Home
TTITLE9=Draw Tow
EXTD=
EXTT0=
EXTT1=
EXTT2=
EXTT3=
EXTT4=
EXTT5=
EXTT6=
EXTT7=
EXTT8=
EXTT9=
PLAYORDER=
